<svg xmlns="http://www.w3.org/2000/svg" viewBox="0 0 500 500"><g id="freepik--Shadow--inject-19"><ellipse id="freepik--path--inject-19" cx="250" cy="416.24" rx="193.89" ry="11.32" style="fill:#f5f5f5"></ellipse></g><g id="freepik--speech-bubble--inject-19"><path d="M376,113H338.27a11.62,11.62,0,0,0-11.62,11.62v38.09a11.62,11.62,0,0,0,11.62,11.62H353.2l3.94,10.37,3.94-10.37H376a11.62,11.62,0,0,0,11.62-11.62V124.66A11.62,11.62,0,0,0,376,113Z" style="fill:#407BFF"></path><path d="M376,113H338.27a11.62,11.62,0,0,0-11.62,11.62v38.09a11.62,11.62,0,0,0,11.62,11.62H353.2l3.94,10.37,3.94-10.37H376a11.62,11.62,0,0,0,11.62-11.62V124.66A11.62,11.62,0,0,0,376,113Z" style="fill:#fff;opacity:0.4"></path><path d="M363.6,163.7c0,2.05-2.78,3.73-6.25,3.76s-6.28-1.62-6.3-3.66,2.78-3.73,6.25-3.76S363.58,161.66,363.6,163.7Z" style="fill:#263238"></path><path d="M363.6,163.7c0,2.05-2.78,3.73-6.25,3.76s-6.28-1.62-6.3-3.66,2.78-3.73,6.25-3.76S363.58,161.66,363.6,163.7Z" style="fill:#fff;opacity:0.4"></path><path d="M366.26,156.89a1.81,1.81,0,0,0,.55-1.23c0-2-4.3-3.61-9.57-3.57s-9.54,1.7-9.52,3.71a1.8,1.8,0,0,0,.57,1.22,1.51,1.51,0,0,0-.16.64,1.81,1.81,0,0,0,.59,1.21,1.41,1.41,0,0,0-.17.66,1.7,1.7,0,0,0,.6,1.19,1.25,1.25,0,0,0-.18.67,1.64,1.64,0,0,0,.61,1.18,1.34,1.34,0,0,0-.2.68c0,1.67,3.58,3,8,3s7.93-1.42,7.92-3.09a1.29,1.29,0,0,0-.21-.67,1.72,1.72,0,0,0,.6-1.2,1.34,1.34,0,0,0-.2-.66,1.67,1.67,0,0,0,.58-1.2,1.41,1.41,0,0,0-.17-.66,1.74,1.74,0,0,0,.56-1.21A1.48,1.48,0,0,0,366.26,156.89Z" style="fill:#263238"></path><path d="M374,139a16.89,16.89,0,1,0-27.51,13.26,2.79,2.79,0,0,1,1,2.39.66.66,0,0,0,0,.14c0,2,4.37,3.66,9.72,3.62s9.69-1.72,9.67-3.76a.66.66,0,0,0,0-.14,2.8,2.8,0,0,1,1-2.42A16.87,16.87,0,0,0,374,139Z" style="fill:#407BFF"></path><path d="M374,139a16.89,16.89,0,1,0-27.51,13.26,2.79,2.79,0,0,1,1,2.39.66.66,0,0,0,0,.14c0,2,4.37,3.66,9.72,3.62s9.69-1.72,9.67-3.76a.66.66,0,0,0,0-.14,2.8,2.8,0,0,1,1-2.42A16.87,16.87,0,0,0,374,139Z" style="fill:#fff;opacity:0.9"></path><g style="isolation:isolate;opacity:0.2"><path d="M353.79,156.07a.62.62,0,0,1-.61-.6c0-5.83-4.75-10.27-4.8-10.32a.6.6,0,0,1-.15-.66.59.59,0,0,1,.55-.38l2.78,0,.85-2a.6.6,0,0,1,1.09-.06l1.59,2.87,1.54-2.9a.68.68,0,0,1,.55-.32.63.63,0,0,1,.53.34l1.58,3.24,1.52-3.26a.65.65,0,0,1,.56-.35.63.63,0,0,1,.55.37l.87,2,2.78,0h0a.6.6,0,0,1,.58.44.62.62,0,0,1-.27.69c-4,2.34-5.08,10.31-5.09,10.39a.6.6,0,0,1-.68.52.61.61,0,0,1-.52-.68c0-.31.95-6.8,4.24-10.14H362.4a.59.59,0,0,1-.56-.36l-.5-1.16-1.5,3.19a.61.61,0,0,1-.54.35.62.62,0,0,1-.55-.34l-1.61-3.3-1.51,2.83a.6.6,0,0,1-.53.32c-.22.08-.43-.12-.53-.31L353,143.68l-.51,1.24a.61.61,0,0,1-.56.37h-1.79c1.5,1.74,4.18,5.48,4.21,10.16a.6.6,0,0,1-.6.61Z"></path></g></g><g id="freepik--Character--inject-19"><path d="M308.89,314.76c.77-.13.76-.19.42.05a75.37,75.37,0,0,0-7.19,5.08c-17.9,14.32-42.31,33-67.11,19.43-11.37-5.4-17.79-39.1-19.55-51.08-.68-4.93-1.27-9.76-1.51-14.86-.39-10.78,13.62-15,19.26-5.94C237.5,274.49,243,285,247,292.33c3.63,6.57,6.93,13.11,11.22,19a8.41,8.41,0,0,0,1.18,1.31l-7.39-6c.11-.22-.28-.44-.08-.61s.93-.43,2.1-1.08c8.31-4.69,14.43-11,22.67-17.43a79.69,79.69,0,0,1,14.13-9.37,39,39,0,0,1,8.42-3,20.42,20.42,0,1,1,9.63,39.69Z" style="fill:#407BFF"></path><path d="M219.68,272.93l9.22-6.64c6.6-10-7.67-16.22-7.67-16.22l-8-8.51c-1.91-2-5.21-2.06-7.8-.23l-6.48,4.59c-3,2.09-3.91,5.93-2.12,8.5l6.43,8.51a12.46,12.46,0,0,0,4.58,4Z" style="fill:#e4897b"></path><path d="M234.74,267.58l-2.42-6.11c-8.26,5.93-19.71,9.22-19.71,9.22l-1.75,8S227.66,279.14,234.74,267.58Z" style="fill:#407BFF"></path><path d="M234.74,267.58l-2.42-6.11c-8.26,5.93-19.71,9.22-19.71,9.22l-1.75,8S227.66,279.14,234.74,267.58Z" style="fill:#fff;opacity:0.5"></path><path d="M286.83,331.38a81.59,81.59,0,0,1-18.53,9.85A46,46,0,0,1,253.72,344a35.61,35.61,0,0,1-4-.14c10.1-27.84,38.85-39.51,38.85-39.51A48.29,48.29,0,0,1,286.83,331.38Z" style="opacity:0.2"></path><path d="M394.38,402.27c1.82-25.95,2.69-61.19,10.74-91a25.31,25.31,0,0,0-19-31.49c-22.79-4.78-52.41-7.05-74.76-6.24-8.79.32-18.23,4.58-21.05,12.92C277.36,324.82,256.82,356,253,399L329,402.27Z" style="fill:#407BFF"></path><path d="M331.61,289c14.44,2.28,28.35-8.74,35.6-12.3-6.79-5.91-2.44-15.49-3.35-20.75-.39-2.32-.49-3.81-.49-3.81l-32.7,8.36c1.05,4,.88,7.17-.31,10-3.29.8-6.47,4-7.56,6.28a.78.78,0,0,1-.11.2C320.34,281.77,317.38,286.77,331.61,289Z" style="fill:#e4897b"></path><path d="M322.69,277c14.05,7.63,37.19-8.57,41.17-21-.39-2.32-.49-3.81-.49-3.81l-32.7,8.36c1.05,4,.88,7.17-.31,10-3.29.8-6.47,4-7.56,6.28A.78.78,0,0,1,322.69,277Z" style="opacity:0.2"></path><path d="M330.75,288.88l6-4.29,8,5.13S339.59,293.94,330.75,288.88Z" style="fill:#407BFF"></path><path d="M330.75,288.88l6-4.29,8,5.13S339.59,293.94,330.75,288.88Z" style="fill:#fff;opacity:0.5"></path><path d="M364.09,272.72s-11.91,13.11-27.35,11.87c9,5.49,10.43,16,10.43,16s19.28-3.5,23-23.89A8.57,8.57,0,0,0,364.09,272.72Z" style="fill:#407BFF"></path><path d="M330.75,288.88l-6.73-7-8.63,1.49S321.86,291.66,330.75,288.88Z" style="fill:#407BFF"></path><path d="M330.75,288.88l-6.73-7-8.63,1.49S321.86,291.66,330.75,288.88Z" style="fill:#fff;opacity:0.5"></path><path d="M330.37,270.47s-6,6.31-6.35,11.38c-7.24,1.15-10.77,11.47-10.77,11.47S312,277.75,323.38,270.9C326.15,269.41,330.37,270.47,330.37,270.47Z" style="fill:#407BFF"></path><path d="M364.09,272.72s-11.91,13.11-27.35,11.87c9,5.49,10.43,16,10.43,16s19.28-3.5,23-23.89A8.57,8.57,0,0,0,364.09,272.72Z" style="fill:#fff;opacity:0.8"></path><path d="M330.37,270.47s-6,6.31-6.35,11.38c-7.24,1.15-10.77,11.47-10.77,11.47S312,277.75,323.38,270.9C326.15,269.41,330.37,270.47,330.37,270.47Z" style="fill:#fff;opacity:0.8"></path><path d="M321.79,233.36l-.13,0-7-1.64a.55.55,0,1,1,.26-1.07l7,1.64a.56.56,0,0,1,.41.66A.56.56,0,0,1,321.79,233.36Z" style="fill:#263238"></path><path d="M317.73,222.19c-.64,7.62,1.68,15.93,8,13.71,2.71-1,4.09-3.5,4.69-6.65,1.43-7.59-1.77-18.62-1.77-18.62s-3.69-4.15-8.28,2.51C319,215.26,318,218.65,317.73,222.19Z" style="fill:#263238"></path><path d="M317.73,222.19c-.64,7.62,1.68,15.93,8,13.71,2.71-1,4.09-3.5,4.69-6.65a60.36,60.36,0,0,0-5.38-7.82S322.62,219.16,317.73,222.19Z" style="fill:#fff;opacity:0.5"></path><path d="M339.7,208.79c18.31-3.58,33.66,11.92,29.73,28.31s-7,27.45-18.52,32.79c-22.92,10.59-33.72-.44-35.15-17.71C314.48,236.63,321.12,212.42,339.7,208.79Z" style="fill:#e4897b"></path><path d="M342.55,238.15s3.74-.88,6.28,1.08A16.44,16.44,0,0,1,342.55,238.15Z" style="opacity:0.2"></path><path d="M342.4,239.66s3.5-.08,5.26,2.37A13.48,13.48,0,0,1,342.4,239.66Z" style="opacity:0.2"></path><path d="M326.14,217c1.67,7.45,16.19,1.82,26.6,1.61a5.53,5.53,0,0,1,5.54,6.75v0a5.43,5.43,0,0,1-.91,2.09c-4.11,5.82-.15,11.2-2.34,14.6-5.08,7.88,1.53,11,11.76,8.93a8.21,8.21,0,0,0,4-1.54c5.21-.9,8.24-5.81,9.46-12.91a54.34,54.34,0,0,0,.52-12.21c-.74-13.24-19.05-22.46-19.05-22.46s-16.71-10.14-27.4-2S326.14,217,326.14,217Z" style="fill:#263238"></path><path d="M339.58,238.25c-.24,1.46-1.21,2.5-2.15,2.33s-1.53-1.48-1.29-2.93,1.21-2.49,2.16-2.32S339.82,236.8,339.58,238.25Z" style="fill:#263238"></path><path d="M322.53,235.54c-.24,1.45-1.21,2.5-2.16,2.33s-1.52-1.48-1.28-2.93,1.21-2.49,2.16-2.33S322.77,234.09,322.53,235.54Z" style="fill:#263238"></path><path d="M345.3,235.05a.93.93,0,0,0,.44,0,.86.86,0,0,0,.62-1.05,8.64,8.64,0,0,0-5.1-6.07.85.85,0,0,0-1.09.53.88.88,0,0,0,.54,1.1h0a7,7,0,0,1,4,4.85A.87.87,0,0,0,345.3,235.05Z" style="fill:#263238"></path><path d="M317.08,228.87a.84.84,0,0,0,.74-.33,6.81,6.81,0,0,1,5.57-2.79.87.87,0,0,0,.13-1.73,8.52,8.52,0,0,0-7.07,3.46.86.86,0,0,0,.16,1.21A.83.83,0,0,0,317.08,228.87Z" style="fill:#263238"></path><path d="M355,242c-5.08,7.88,1.53,11,11.76,8.93a8.21,8.21,0,0,0,4-1.54c5.21-.9,8.24-5.81,9.46-12.91-9.42-1.53-15.56-9.05-15.92-9.48a5.94,5.94,0,0,0,1.72,3.64c-5.9-1.21-7.58-5-7.75-5.33a5.43,5.43,0,0,1-.91,2.09C353.25,233.26,357.21,238.64,355,242Z" style="fill:#fff;opacity:0.5"></path><path d="M328.79,235.62l-1.12,12.31s-4.06.59-6.19-1.79C323.42,240,328.79,235.62,328.79,235.62Z" style="fill:#de5753"></path><path d="M326.38,256.57h-.75a.81.81,0,0,1-.78-.87.81.81,0,0,1,.86-.78c.07,0,7,.3,10.38-2.66a.83.83,0,1,1,1.09,1.24C334,256.3,328.41,256.57,326.38,256.57Z" style="fill:#263238"></path><path d="M331.21,234.37a.55.55,0,0,1-.35-.12,4.4,4.4,0,0,0-4-.57.55.55,0,0,1-.34-1.05,5.5,5.5,0,0,1,5,.77.54.54,0,0,1,.08.77A.55.55,0,0,1,331.21,234.37Z" style="fill:#263238"></path><path d="M368.46,244.39h-.08a.55.55,0,0,1-.47-.62l.06-.34a3.37,3.37,0,0,0-2.84-3.82l-17.25-3a.55.55,0,1,1,.19-1.08l17.24,3a4.45,4.45,0,0,1,2.91,1.76,4.4,4.4,0,0,1,.83,3.31l-.05.34A.55.55,0,0,1,368.46,244.39Z" style="fill:#263238"></path><path d="M320.38,241.75a3.12,3.12,0,0,1-.52,0l-2.68-.39c-1.58-.24-2.72-1.88-2.78-4l-.16-6.14a.56.56,0,0,1,.23-.46c.08-.06,2-1.46,6.4-.81a10.12,10.12,0,0,1,5.86,2.6.54.54,0,0,1,.11.57L325,237.89C324.06,240.27,322.26,241.75,320.38,241.75Zm-5-10.27.15,5.81c0,1.55.82,2.79,1.84,2.94l2.68.4c1.55.22,3.12-1,3.93-3.13l1.73-4.47a10.07,10.07,0,0,0-5-2A9.18,9.18,0,0,0,315.35,231.48Z" style="fill:#263238"></path><path d="M341.84,244.92a4,4,0,0,1-.69,0l-3.79-.56A6.42,6.42,0,0,1,332,239l-.85-5.22a.55.55,0,0,1,.34-.6c.13,0,3.19-1.21,8.68-.39,6,.89,8.15,2.84,8.23,2.92a.56.56,0,0,1,.14.61l-2.38,5.76A4.62,4.62,0,0,1,341.84,244.92Zm-9.58-10.87.78,4.75a5.3,5.3,0,0,0,4.48,4.42l3.8.57a3.54,3.54,0,0,0,3.78-2.15l2.21-5.37c-.73-.51-2.91-1.75-7.35-2.41A19.5,19.5,0,0,0,332.26,234.05Z" style="fill:#263238"></path><path d="M373.21,251.94a14.88,14.88,0,0,1-9.94,5.64c-5.23.6-7.07-4.28-5-8.79,1.9-4.06,6.91-9.27,11.84-7.78S376.15,248.07,373.21,251.94Z" style="fill:#e4897b"></path><path d="M342.11,402.27h52.27c1.82-25.95,2.69-61.19,10.74-91L380.22,325s-1,24.15,4.09,40c0,0-27.48,7.91-46,14.77C325.81,384.37,334.84,395.47,342.11,402.27Z" style="opacity:0.2"></path><path d="M398,286.55a47,47,0,0,1,6.25,6.29,155.24,155.24,0,0,1,15.26,22.54,166.09,166.09,0,0,1,13.43,29.46c6.3,18.28,8.22,42.49-12,53.13-17.38,8.84-42.91,6-61.37,2.69-3.4-.67-6.57-1.38-10-2.29a10.29,10.29,0,0,1,1.48-20.17c12.21-1.91,24.85-3.45,36.12-6,4.73-1.06,10.39-2.47,14.25-4.5a3.7,3.7,0,0,0,1.32-1c.11-.16-.42-.12-1.5,1a9.68,9.68,0,0,0-1.13,1.48,7.67,7.67,0,0,0-.48.87c-.18.36-.2.26-.28-.15C397.76,361,393,352,388.42,343.61a215.64,215.64,0,0,0-15.94-24.68l-.83-1-.1-.13s0,0,0,0l.63.51c-20.32-17.9,4.07-48,25.78-31.68Z" style="fill:#407BFF"></path><path d="M350.48,379.25,354,389.44c-.35,11.33-14.83,8.38-14.83,8.38l-7.55,1.39c-2.55.47-5.16-1.26-6.16-4.09L322.94,388c-1.14-3.24.22-6.74,3-7.75l6.29-2.27a11.77,11.77,0,0,1,5.73-.58Z" style="fill:#e4897b"></path><path d="M359.21,402.27h1.92c.29-4.46.61-20.21-9.07-26.57l-7,2.81c5.66,8.45,6.93,19,6.93,19Z" style="fill:#407BFF"></path><path d="M359.21,402.27h1.92c.29-4.46.61-20.21-9.07-26.57l-7,2.81c5.66,8.45,6.93,19,6.93,19Z" style="fill:#fff;opacity:0.5"></path><rect x="66.44" y="398.36" width="362.11" height="17.94" style="fill:#263238"></rect><rect x="66.44" y="398.36" width="362.11" height="17.94" style="fill:#fff;opacity:0.5"></rect><rect x="60.51" y="396.64" width="373.98" height="6.94" rx="2.02" style="fill:#263238"></rect><rect x="60.51" y="396.64" width="373.98" height="6.94" rx="2.02" style="fill:#fff;opacity:0.6000000000000001"></rect></g><g id="freepik--Books--inject-19"><rect x="75.47" y="355.7" width="50.4" height="11.88" transform="translate(201.35 723.28) rotate(180)" style="fill:#407BFF"></rect><rect x="75.47" y="355.7" width="50.4" height="11.88" transform="translate(201.35 723.28) rotate(180)" style="fill:#fff;isolation:isolate;opacity:0.7000000000000001"></rect><path d="M106.39,354.61h39.47a7,7,0,0,1,0,14.06H106.39V366.1h6a4.46,4.46,0,0,0,0-8.92h-6Z" style="fill:#407BFF"></path><g style="isolation:isolate;opacity:0.4"><path d="M106.39,354.61h39.47a7,7,0,0,1,0,14.06H106.39V366.1h6a4.46,4.46,0,0,0,0-8.92h-6Z" style="fill:#fff"></path></g><path d="M72.9,354.61h39.48a7,7,0,0,1,0,14.06H72.9V366.1h39.48a4.46,4.46,0,0,0,0-8.92H72.9Z" style="fill:#407BFF"></path><g style="isolation:isolate;opacity:0.2"><path d="M72.9,354.61h39.48a7,7,0,0,1,0,14.06H72.9V366.1h39.48a4.46,4.46,0,0,0,0-8.92H72.9Z" style="fill:#fff"></path></g><rect x="65.12" y="369.76" width="50.4" height="11.88" transform="translate(180.64 751.41) rotate(180)" style="fill:#407BFF"></rect><rect x="65.12" y="369.76" width="50.4" height="11.88" transform="translate(180.64 751.41) rotate(180)" style="fill:#fff;isolation:isolate;opacity:0.7000000000000001"></rect><path d="M96,368.67h39.48a7,7,0,0,1,0,14.07H96v-2.58h6a4.46,4.46,0,1,0,0-8.91H96Z" style="fill:#263238"></path><g style="opacity:0.2"><path d="M96,368.67h39.48a7,7,0,0,1,0,14.07H96v-2.58h6a4.46,4.46,0,1,0,0-8.91H96Z" style="fill:#fff"></path></g><path d="M62.55,368.67H102a7,7,0,0,1,0,14.07H62.55v-2.58H102a4.46,4.46,0,1,0,0-8.91H62.55Z" style="fill:#263238"></path><g style="isolation:isolate;opacity:0.4"><path d="M62.55,368.67H102a7,7,0,0,1,0,14.07H62.55v-2.58H102a4.46,4.46,0,1,0,0-8.91H62.55Z" style="fill:#fff"></path></g><rect x="96.08" y="383.83" width="50.4" height="11.88" style="fill:#407BFF"></rect><rect x="96.08" y="383.83" width="50.4" height="11.88" style="fill:#fff;isolation:isolate;opacity:0.7000000000000001"></rect><path d="M149.05,382.74H109.58a7,7,0,1,0,0,14.06h39.47v-2.57H109.58a4.46,4.46,0,1,1,0-8.92h39.47Z" style="fill:#263238"></path><path d="M115.57,382.74H76.1a7,7,0,1,0,0,14.06h39.47v-2.57h-6a4.46,4.46,0,1,1,0-8.92h6Z" style="fill:#263238"></path><g style="isolation:isolate;opacity:0.4"><path d="M149.05,382.74H109.58a7,7,0,1,0,0,14.06h39.47v-2.57H109.58a4.46,4.46,0,1,1,0-8.92h39.47Z" style="fill:#fff"></path></g><path d="M280,391.14s-11.14-5.59-17.28-5.75h-58l3.56,11.11,24.85-.86L279,395Z" style="fill:#407BFF"></path><path d="M280,391.14s-11.14-5.59-17.28-5.75h-58l3.56,11.11,24.85-.86L279,395Z" style="fill:#fff;isolation:isolate;opacity:0.7000000000000001"></path><path d="M189.11,391.69s6.52-5.44,14.44-6.23,10.68,5.43,10.68,5.43,3.76-5.17,9.69-5.5,18,5.75,18,5.75l-1,3.82-51.23.75Z" style="fill:#407BFF"></path><path d="M189.11,391.69s6.52-5.44,14.44-6.23,10.68,5.43,10.68,5.43,3.76-5.17,9.69-5.5,18,5.75,18,5.75l-1,3.82-51.23.75Z" style="fill:#fff;isolation:isolate;opacity:0.6000000000000001"></path><polygon points="279.97 391.14 279.77 391.89 279.64 392.37 278.95 394.96 240.93 394.96 241.37 393.3 241.51 392.8 241.95 391.14 279.97 391.14" style="opacity:0.2"></polygon><g style="opacity:0.2"><path d="M240.93,391.59a65.31,65.31,0,0,0-6.75-2.54,32.65,32.65,0,0,0-7-1.53,13.89,13.89,0,0,0-6.89,1.43,26.79,26.79,0,0,0-6,3.8l-.19.16-.16-.18a17.59,17.59,0,0,0-5.14-4.06,11.45,11.45,0,0,0-3.09-1.07,9.91,9.91,0,0,0-3.26,0,30.37,30.37,0,0,0-6.32,2,59.36,59.36,0,0,0-6,2.93,57.6,57.6,0,0,1,5.91-3.14,28.32,28.32,0,0,1,6.35-2.16,9.66,9.66,0,0,1,3.39-.09,12,12,0,0,1,3.22,1.08,18.31,18.31,0,0,1,5.32,4.15l-.36,0a27,27,0,0,1,6.17-3.85,14.1,14.1,0,0,1,7.11-1.4,32.71,32.71,0,0,1,7.06,1.68A67,67,0,0,1,240.93,391.59Z"></path></g><g style="opacity:0.2"><path d="M190.49,393.05a44.39,44.39,0,0,1,5.78-2.21,28.7,28.7,0,0,1,6.09-1.21,17.55,17.55,0,0,1,6.2.62,18.34,18.34,0,0,1,5.67,2.6l-.25,0a39.42,39.42,0,0,1,6.32-2.29,19.48,19.48,0,0,1,6.67-.78,48.94,48.94,0,0,1,6.61,1.07q3.27.76,6.46,1.74c-2.15-.57-4.33-1.06-6.51-1.49a49.07,49.07,0,0,0-6.59-.93,19.79,19.79,0,0,0-6.52.84,41.85,41.85,0,0,0-6.23,2.28l-.13.06-.12-.09A18.86,18.86,0,0,0,202.39,390a29.73,29.73,0,0,0-6,1.06A44.77,44.77,0,0,0,190.49,393.05Z"></path></g><g style="opacity:0.2"><path d="M193.06,393.05A43,43,0,0,1,203.61,392a41,41,0,0,1,5.31.4,42.4,42.4,0,0,1,5.23,1H214c2-.35,4-.58,6-.79s4-.35,6-.41,4,0,6,.06a45.71,45.71,0,0,1,6,.79A58.15,58.15,0,0,0,226,392.6a105.37,105.37,0,0,0-11.89,1.28h-.06l0,0a45.39,45.39,0,0,0-5.16-1.06,51.61,51.61,0,0,0-10.54-.4A40.61,40.61,0,0,0,193.06,393.05Z"></path></g><g style="opacity:0.2"><polygon points="279.77 391.89 279.64 392.37 243.21 392.13 279.77 391.89"></polygon></g><g style="opacity:0.2"><polygon points="276.24 393.05 241.37 393.3 241.51 392.8 276.24 393.05"></polygon></g><path d="M212.64,394.26s.2-3.09,1.59-3.37,1.29,3.37,1.29,3.37Z" style="fill:#263238"></path><rect x="186.72" y="393.64" width="94.96" height="3" style="fill:#263238"></rect><rect x="186.72" y="393.64" width="94.96" height="3" style="fill:#fff;opacity:0.2"></rect><rect x="243.7" y="393.64" width="37.98" height="3" style="opacity:0.2"></rect><path d="M151,376.07a11.87,11.87,0,0,1,3.08-8.49l1.88,1.66a15.62,15.62,0,0,0-3.76,6.83Z" style="fill:#263238"></path><path d="M162,393.33c-.19.25-.38.5-.58.73l-.07.07a6.4,6.4,0,0,1-4.66,2.51c-3.83,0-5.6-1.68-5.6-1.68a9.41,9.41,0,0,1-5.66,1.68c-6.33,0-10.36-12.87-8.11-18.1,1.7-3.94,4.43-5.57,7.2-5.71h0a9.74,9.74,0,0,1,7.08,2.87s6.37-5.44,11.12,0C166.78,380.32,165.42,388.69,162,393.33Z" style="fill:#407BFF"></path><path d="M161.36,394.13a6.4,6.4,0,0,1-4.66,2.51c-3.83,0-5.6-1.68-5.6-1.68a9.41,9.41,0,0,1-5.66,1.68c-6.33,0-10.36-12.87-8.11-18.1,1.7-3.94,4.43-5.57,7.2-5.71-4.83.6-4.69,11.61-2,18s8.56,2.77,8.56,2.77a6.34,6.34,0,0,0,4.82,2.5A7.55,7.55,0,0,0,161.36,394.13Z" style="opacity:0.2"></path></g></svg>
